<?xml version="1.0" encoding="iso-8859-1"?>
<!-- Generator: Adobe Illustrator 19.0.0, SVG Export Plug-In . SVG Version: 6.00 Build 0)  -->
<svg version="1.1" id="Capa_1" xmlns="http://www.w3.org/2000/svg" xmlns:xlink="http://www.w3.org/1999/xlink" x="0px" y="0px"
	 viewBox="0 0 512 512" style="enable-background:new 0 0 512 512;" xml:space="preserve">
<path style="fill:#7F7FBF;" d="M363.448,235.721c-26.862,0-26.862,21.636-53.724,21.636c-26.86,0-26.86-21.636-53.72-21.636
	c-26.861,0-26.861,21.636-53.721,21.636c-26.862,0-26.862-21.636-53.724-21.636c-26.861,0-26.861,21.636-53.722,21.636
	c-22.621,0-26.2-15.336-42.804-20.181c-4.993-1.457-9.762,2.853-8.688,7.942l46.316,219.563C95.479,492.261,119.816,512,148.003,512
	h215.993c28.188,0,52.525-19.738,58.342-47.319l46.318-219.571c1.045-4.952-3.503-9.394-8.374-8.025
	c-16.873,4.742-20.353,20.271-43.113,20.271C390.309,257.357,390.309,235.721,363.448,235.721z"/>
<path style="fill:#FFFFFF;" d="M285.221,341.495c-11.868,0-22.433,5.575-29.221,14.249c-6.788-8.674-17.353-14.249-29.221-14.249
	c-20.481,0-37.085,16.603-37.085,37.085c0,46.593,66.306,72.539,66.306,72.539s66.306-25.946,66.306-72.539
	C322.306,358.098,305.702,341.495,285.221,341.495z"/>
<path style="fill:#7272AF;" d="M460.283,237.086c-16.873,4.742-20.353,20.271-43.113,20.271c-2.255,0-4.306-0.164-6.214-0.443
	l-1.529,7.249c-1.469-0.106-2.99-0.17-4.59-0.17c-37.209,0-37.209,29.97-74.417,29.97c-37.207,0-37.207-29.97-74.413-29.97
	c-37.207,0-37.207,29.97-74.414,29.97c-37.209,0-37.209-29.97-74.418-29.97c-28.945,0-35.378,18.133-54.323,26.188l4.293,20.35
	c15.816-8.726,23.382-24.096,50.03-24.096c37.209,0,37.209,29.97,74.418,29.97c37.207,0,37.207-29.97,74.414-29.97
	s37.207,29.97,74.413,29.97c37.171,0,37.212-29.907,74.309-29.967l-37.6,178.244C361.31,492.262,336.973,512,308.785,512h55.211
	c28.188,0,52.525-19.738,58.343-47.319l46.318-219.571C469.702,240.159,465.155,235.716,460.283,237.086z"/>
<path style="fill:#FFCCD7;" d="M32.758,293.962c37.208,0,37.208-29.97,74.415-29.97c37.209,0,37.209,29.97,74.418,29.97
	c37.207,0,37.207-29.97,74.414-29.97s37.207,29.97,74.413,29.97c37.209,0,37.209-29.97,74.417-29.97
	c37.207,0,37.207,29.97,74.414,29.97c0.07,0,0.139,0,0.209,0c10.426-0.032,19.562-6.894,22.867-16.781
	c4.509-13.486,6.955-27.916,6.955-42.919c0-60.585-39.807-111.869-94.692-129.133C388.464,43.349,327.296,0,256,0
	S123.535,43.349,97.41,105.128C42.525,122.393,2.718,173.676,2.718,234.262c0,15.253,2.528,29.913,7.181,43.592
	c3.259,9.58,12.318,16.045,22.437,16.108C32.476,293.962,32.617,293.962,32.758,293.962z"/>
<path style="fill:#FFB3CB;" d="M414.59,105.128C388.464,43.349,327.296,0,256,0c-9.376,0-18.574,0.757-27.542,2.2
	c59.232,9.527,108.358,49.274,131.047,102.929c54.885,17.265,94.692,68.548,94.692,129.133c0,15.003-2.446,29.433-6.955,42.919
	c-0.515,1.54-1.186,2.996-1.967,4.375c8.339,6.541,17.516,12.407,33.975,12.407c0.07,0,0.139,0,0.209,0
	c10.426-0.032,19.562-6.894,22.867-16.781c4.509-13.486,6.955-27.916,6.955-42.919C509.283,173.677,469.474,122.393,414.59,105.128z
	"/>
<circle style="fill:#7F7FBF;" cx="317.891" cy="106.02" r="23.541"/>
<circle style="fill:#53E7D3;" cx="176.44" cy="82.47" r="23.541"/>
<circle style="fill:#FFB125;" cx="83.72" cy="212.18" r="23.541"/>
<circle style="fill:#FF4C4C;" cx="241.72" cy="188.64" r="23.541"/>
<circle style="fill:#FF6991;" cx="417.171" cy="217.21" r="23.541"/>
<path style="fill:#E1EFFB;" d="M322.306,378.579c0-20.481-16.603-37.085-37.085-37.085c-11.868,0-22.433,5.575-29.221,14.249v95.374
	C256,451.119,322.306,425.173,322.306,378.579z"/>
<path style="fill:#1BCCC7;" d="M199.976,82.474c0-13.001-10.54-23.541-23.541-23.541v47.082
	C189.436,106.015,199.976,95.475,199.976,82.474z"/>
<path style="fill:#F33A3A;" d="M265.26,188.64c0-13.001-10.54-23.541-23.541-23.541v47.082
	C254.72,212.18,265.26,201.641,265.26,188.64z"/>
<path style="fill:#FF507E;" d="M440.715,217.207c0-13.001-10.54-23.541-23.541-23.541v47.082
	C430.175,240.748,440.715,230.208,440.715,217.207z"/>
<path style="fill:#7272AF;" d="M341.428,106.015c0-13.001-10.54-23.541-23.541-23.541v47.082
	C330.889,129.556,341.428,119.016,341.428,106.015z"/>
<path style="fill:#FF901D;" d="M107.266,212.18c0-13.001-10.54-23.541-23.541-23.541v47.082
	C96.726,235.721,107.266,225.182,107.266,212.18z"/>
<g>
</g>
<g>
</g>
<g>
</g>
<g>
</g>
<g>
</g>
<g>
</g>
<g>
</g>
<g>
</g>
<g>
</g>
<g>
</g>
<g>
</g>
<g>
</g>
<g>
</g>
<g>
</g>
<g>
</g>
</svg>
